<!DOCTYPE svg PUBLIC "-//W3C//DTD SVG 1.1//EN" "http://www.w3.org/Graphics/SVG/1.1/DTD/svg11.dtd">
<svg width="1280.0px" height="480.0px" viewBox="0.0 0.0 1280.0 480.0" xmlns="http://www.w3.org/2000/svg" xmlns:xlink="http://www.w3.org/1999/xlink" version="1.1">
  <path d="M 0 0 L 0 480 L 1280 480 L 1280 0 z" fill="#FFFFFF" fill-opacity="1.0" stroke="none"/>
  <text x="50" y="468.7" font-family="Helvetica" font-size="10" font-weight="normal" font-style="normal" fill="#000000" fill-opacity="1">Average per-element processing time over input size (bands: min, mean, mean + 2stddev)</text>
  <a xlink:href="https://github.com/apple/swift-collections-benchmark"><text x="1107" y="468.7" font-family="Helvetica" font-size="10" font-weight="normal" font-style="normal" fill="#000000" fill-opacity="1">swift-collections-benchmark</text></a>
  <path d="M 50 9 L 50 441" fill="none" stroke-width="0.75" stroke="#000000" stroke-opacity="0.49804" stroke-linecap="butt" stroke-linejoin="round"/>
  <text x="44" y="453.7" font-family="Helvetica" font-size="10" font-weight="normal" font-style="normal" fill="#000000" fill-opacity="1">16</text>
  <path d="M 246.67 9 L 246.67 441" fill="none" stroke-width="0.75" stroke="#000000" stroke-opacity="0.49804" stroke-linecap="butt" stroke-linejoin="round"/>
  <text x="240.67" y="453.7" font-family="Helvetica" font-size="10" font-weight="normal" font-style="normal" fill="#000000" fill-opacity="1">32</text>
  <path d="M 443.33 9 L 443.33 441" fill="none" stroke-width="0.75" stroke="#000000" stroke-opacity="0.49804" stroke-linecap="butt" stroke-linejoin="round"/>
  <text x="437.33" y="453.7" font-family="Helvetica" font-size="10" font-weight="normal" font-style="normal" fill="#000000" fill-opacity="1">64</text>
  <path d="M 640 9 L 640 441" fill="none" stroke-width="0.75" stroke="#000000" stroke-opacity="0.49804" stroke-linecap="butt" stroke-linejoin="round"/>
  <text x="631.5" y="453.7" font-family="Helvetica" font-size="10" font-weight="normal" font-style="normal" fill="#000000" fill-opacity="1">128</text>
  <path d="M 836.67 9 L 836.67 441" fill="none" stroke-width="0.75" stroke="#000000" stroke-opacity="0.49804" stroke-linecap="butt" stroke-linejoin="round"/>
  <text x="828.17" y="453.7" font-family="Helvetica" font-size="10" font-weight="normal" font-style="normal" fill="#000000" fill-opacity="1">256</text>
  <path d="M 1033.3 9 L 1033.3 441" fill="none" stroke-width="0.75" stroke="#000000" stroke-opacity="0.49804" stroke-linecap="butt" stroke-linejoin="round"/>
  <text x="1024.8" y="453.7" font-family="Helvetica" font-size="10" font-weight="normal" font-style="normal" fill="#000000" fill-opacity="1">512</text>
  <path d="M 1230 9 L 1230 441" fill="none" stroke-width="0.75" stroke="#000000" stroke-opacity="0.49804" stroke-linecap="butt" stroke-linejoin="round"/>
  <text x="1224.5" y="453.7" font-family="Helvetica" font-size="10" font-weight="normal" font-style="normal" fill="#000000" fill-opacity="1">1k</text>
  <path d="M 50 441 L 1230 441" fill="none" stroke-width="0.75" stroke="#000000" stroke-opacity="0.49804" stroke-linecap="butt" stroke-linejoin="round"/>
  <text x="18" y="442.7" font-family="Helvetica" font-size="10" font-weight="normal" font-style="normal" fill="#000000" fill-opacity="1">10 ms</text>
  <text x="1236" y="442.7" font-family="Helvetica" font-size="10" font-weight="normal" font-style="normal" fill="#000000" fill-opacity="1">10 ms</text>
  <path d="M 50 9 L 1230 9" fill="none" stroke-width="0.75" stroke="#000000" stroke-opacity="0.49804" stroke-linecap="butt" stroke-linejoin="round"/>
  <text x="13" y="10.7" font-family="Helvetica" font-size="10" font-weight="normal" font-style="normal" fill="#000000" fill-opacity="1">100 ms</text>
  <text x="1236" y="10.7" font-family="Helvetica" font-size="10" font-weight="normal" font-style="normal" fill="#000000" fill-opacity="1">100 ms</text>
  <path d="M 50 310.96 L 1230 310.96" fill="none" stroke-width="0.5" stroke="#000000" stroke-opacity="0.25882" stroke-linecap="butt" stroke-linejoin="round" stroke-dasharray="6 3" stroke-dashoffset="0"/>
  <path d="M 50 180.91 L 1230 180.91" fill="none" stroke-width="0.5" stroke="#000000" stroke-opacity="0.25882" stroke-linecap="butt" stroke-linejoin="round" stroke-dasharray="6 3" stroke-dashoffset="0"/>
  <path d="M 50 50.865 L 1230 50.865" fill="none" stroke-width="0.5" stroke="#000000" stroke-opacity="0.25882" stroke-linecap="butt" stroke-linejoin="round" stroke-dasharray="6 3" stroke-dashoffset="0"/>
  <path d="M 74 33 L 74 105 L 594 105 L 594 33 z" fill="#FFFFFF" fill-opacity="1.0" stroke="none"/>
  <clipPath id="clip-0">
    <path d="M 50 9 L 50 441 L 1230 441 L 1230 9 z"/>
  </clipPath>
  <g clip-path="url(#clip-0)">
    <path d="M 50 209.31L 113.31 208.01L 165.04 201.71L 208.78 196.4L 246.67 196.51L 309.98 186.4L 361.71 186.51L 405.45 170.11L 443.33 169.07L 506.65 157.62L 558.38 138.31L 602.11 141.93L 640 134.28L 703.31 121.47L 755.04 122.43L 798.78 106.93L 836.67 119.66L 899.98 111.7L 951.71 103.79L 995.45 109.05L 1033.3 106.25L 1096.6 100.97L 1148.4 100.92L 1192.1 95.688L 1230 95.142L 1230 95.887L 1192.1 104.27L 1148.4 102.32L 1096.6 106.29L 1033.3 108.8L 995.45 109.47L 951.71 109.01L 899.98 124.17L 836.67 129.97L 798.78 124.5L 755.04 134.16L 703.31 141.82L 640 137.15L 602.11 148.3L 558.38 155.3L 506.65 167.76L 443.33 172.13L 405.45 172.74L 361.71 188.64L 309.98 197.07L 246.67 199.93L 208.78 213.55L 165.04 210.58L 113.31 215.11L 50 221.59" fill="#28CD41" fill-opacity="0.30196078431372547" stroke="none"/>
    <path d="M 50 229.38L 113.31 232.33L 165.04 216.12L 208.78 214.4L 246.67 201.57L 309.98 216.27L 361.71 199.7L 405.45 202.15L 443.33 209.05L 506.65 209.36L 558.38 204.39L 602.11 213.08L 640 211.93L 703.31 211.88L 755.04 206.9L 798.78 207.8L 836.67 210.49L 899.98 204.61L 951.71 205.56L 995.45 206.51L 1033.3 205.61L 1096.6 213.74L 1148.4 212.89L 1192.1 213.26L 1230 213.68L 1230 218.34L 1192.1 220.02L 1148.4 221.39L 1096.6 220.58L 1033.3 221.7L 995.45 219.13L 951.71 217.79L 899.98 218.46L 836.67 217.26L 798.78 219.48L 755.04 220.33L 703.31 220.76L 640 219.56L 602.11 225.75L 558.38 223.4L 506.65 227.83L 443.33 229.27L 405.45 226.49L 361.71 227.69L 309.98 236.07L 246.67 235.42L 208.78 235.19L 165.04 241.5L 113.31 242.6L 50 240.18" fill="#007AFF" fill-opacity="0.30196078431372547" stroke="none"/>
    <path d="M 50 228.74L 113.31 232.1L 165.04 228.47L 208.78 233.45L 246.67 227.39L 309.98 222.78L 361.71 223.76L 405.45 231.72L 443.33 223.54L 506.65 227.65L 558.38 228.26L 602.11 221.39L 640 225.11L 703.31 223.39L 755.04 225.22L 798.78 222.1L 836.67 217.14L 899.98 215.74L 951.71 216.25L 995.45 218.99L 1033.3 223.51L 1096.6 221.38L 1148.4 221.71L 1192.1 217.64L 1230 221.43L 1230 226.68L 1192.1 225.75L 1148.4 226.13L 1096.6 228.62L 1033.3 227.11L 995.45 228.69L 951.71 229.01L 899.98 229.34L 836.67 231.75L 798.78 232.82L 755.04 232.51L 703.31 232.49L 640 236.3L 602.11 237.02L 558.38 233.97L 506.65 236.55L 443.33 237.65L 405.45 239.51L 361.71 250.57L 309.98 242.33L 246.67 242.25L 208.78 251.23L 165.04 249.13L 113.31 255.94L 50 269.68" fill="#FF3B30" fill-opacity="0.30196078431372547" stroke="none"/>
    <path d="M 50 218.31L 113.31 213.23L 165.04 208.23L 208.78 208.92L 246.67 199.03L 309.98 194.22L 361.71 188.08L 405.45 172.05L 443.33 171.32L 506.65 165.06L 558.38 150.71L 602.11 146.62L 640 136.4L 703.31 136.29L 755.04 131.03L 798.78 119.75L 836.67 127.22L 899.98 120.84L 951.71 107.63L 995.45 109.36L 1033.3 108.13L 1096.6 104.89L 1148.4 101.95L 1192.1 101.99L 1230 95.692" fill="none" stroke-width="4" stroke="#28CD41" stroke-opacity="1" stroke-linecap="round" stroke-linejoin="round"/>
    <path d="M 50 235.79L 113.31 239.75L 165.04 232.96L 208.78 227.89L 246.67 225.04L 309.98 226.58L 361.71 218.53L 405.45 219.84L 443.33 222.57L 506.65 219.83L 558.38 218.9L 602.11 219.77L 640 217.38L 703.31 217.65L 755.04 215.22L 798.78 214.87L 836.67 214.9L 899.98 213.47L 951.71 213.75L 995.45 215.14L 1033.3 216.61L 1096.6 218.53L 1148.4 218.12L 1192.1 217.84L 1230 216.58" fill="none" stroke-width="4" stroke="#007AFF" stroke-opacity="1" stroke-linecap="round" stroke-linejoin="round"/>
    <path d="M 50 254.87L 113.31 247.3L 165.04 242.8L 208.78 243.68L 246.67 235.67L 309.98 235.9L 361.71 238.72L 405.45 236.82L 443.33 233.97L 506.65 232.45L 558.38 231.42L 602.11 231.01L 640 231.18L 703.31 230.07L 755.04 230.19L 798.78 228.55L 836.67 227.15L 899.98 225.02L 951.71 225.23L 995.45 225.94L 1033.3 225.79L 1096.6 225.91L 1148.4 224.46L 1192.1 223.63L 1230 224.78" fill="none" stroke-width="4" stroke="#FF3B30" stroke-opacity="1" stroke-linecap="round" stroke-linejoin="round"/>
    <path d="M 50 218.31L 113.31 213.23L 165.04 208.23L 208.78 208.92L 246.67 199.03L 309.98 194.22L 361.71 188.08L 405.45 172.05L 443.33 171.32L 506.65 165.06L 558.38 150.71L 602.11 146.62L 640 136.4L 703.31 136.29L 755.04 131.03L 798.78 119.75L 836.67 127.22L 899.98 120.84L 951.71 107.63L 995.45 109.36L 1033.3 108.13L 1096.6 104.89L 1148.4 101.95L 1192.1 101.99L 1230 95.692" fill="none" stroke-width="0.5" stroke="#000000" stroke-opacity="0.30196" stroke-linecap="round" stroke-linejoin="round"/>
    <path d="M 50 235.79L 113.31 239.75L 165.04 232.96L 208.78 227.89L 246.67 225.04L 309.98 226.58L 361.71 218.53L 405.45 219.84L 443.33 222.57L 506.65 219.83L 558.38 218.9L 602.11 219.77L 640 217.38L 703.31 217.65L 755.04 215.22L 798.78 214.87L 836.67 214.9L 899.98 213.47L 951.71 213.75L 995.45 215.14L 1033.3 216.61L 1096.6 218.53L 1148.4 218.12L 1192.1 217.84L 1230 216.58" fill="none" stroke-width="0.5" stroke="#000000" stroke-opacity="0.30196" stroke-linecap="round" stroke-linejoin="round"/>
    <path d="M 50 254.87L 113.31 247.3L 165.04 242.8L 208.78 243.68L 246.67 235.67L 309.98 235.9L 361.71 238.72L 405.45 236.82L 443.33 233.97L 506.65 232.45L 558.38 231.42L 602.11 231.01L 640 231.18L 703.31 230.07L 755.04 230.19L 798.78 228.55L 836.67 227.15L 899.98 225.02L 951.71 225.23L 995.45 225.94L 1033.3 225.79L 1096.6 225.91L 1148.4 224.46L 1192.1 223.63L 1230 224.78" fill="none" stroke-width="0.5" stroke="#000000" stroke-opacity="0.30196" stroke-linecap="round" stroke-linejoin="round"/>
  </g>
  <path d="M 74 33 L 74 105 L 594 105 L 594 33 z" fill="#FFFFFF" fill-opacity="0.7019607843137254" stroke-width="0.5" stroke="#000000" stroke-opacity="1" stroke-linecap="round" stroke-linejoin="round"/>
  <path d="M 88 52 L 108 52" fill="none" stroke-width="4" stroke="#FF3B30" stroke-opacity="1" stroke-linecap="round" stroke-linejoin="round"/>
  <path d="M 88 52 L 108 52" fill="none" stroke-width="0.5" stroke="#000000" stroke-opacity="0.30196" stroke-linecap="round" stroke-linejoin="round"/>
  <text x="119" y="56.17" font-family="Menlo" font-size="12" font-weight="normal" font-style="normal" fill="#000000" fill-opacity="1">Go∶ Post Chat Event and Receive Poll Results - 1024 Listeners</text>
  <path d="M 88 69 L 108 69" fill="none" stroke-width="4" stroke="#007AFF" stroke-opacity="1" stroke-linecap="round" stroke-linejoin="round"/>
  <path d="M 88 69 L 108 69" fill="none" stroke-width="0.5" stroke="#000000" stroke-opacity="0.30196" stroke-linecap="round" stroke-linejoin="round"/>
  <text x="119" y="73.17" font-family="Menlo" font-size="12" font-weight="normal" font-style="normal" fill="#000000" fill-opacity="1">Scala∶ Post Chat Event and Receive Poll Results - 1024 Listeners</text>
  <path d="M 88 86 L 108 86" fill="none" stroke-width="4" stroke="#28CD41" stroke-opacity="1" stroke-linecap="round" stroke-linejoin="round"/>
  <path d="M 88 86 L 108 86" fill="none" stroke-width="0.5" stroke="#000000" stroke-opacity="0.30196" stroke-linecap="round" stroke-linejoin="round"/>
  <text x="119" y="90.17" font-family="Menlo" font-size="12" font-weight="normal" font-style="normal" fill="#000000" fill-opacity="1">Swift∶ Post Chat Event and Receive Poll Results - 1024 Listeners</text>
  <path d="M 50 9 L 50 441 L 1230 441 L 1230 9 z" fill="none" stroke-width="0.5" stroke="#000000" stroke-opacity="1" stroke-linecap="round" stroke-linejoin="round"/>
</svg>
