<!DOCTYPE svg PUBLIC "-//W3C//DTD SVG 1.1//EN" "http://www.w3.org/Graphics/SVG/1.1/DTD/svg11.dtd">
<svg width="1280.0px" height="480.0px" viewBox="0.0 0.0 1280.0 480.0" xmlns="http://www.w3.org/2000/svg" xmlns:xlink="http://www.w3.org/1999/xlink" version="1.1">
  <path d="M 0 0 L 0 480 L 1280 480 L 1280 0 z" fill="#FFFFFF" fill-opacity="1.0" stroke="none"/>
  <text x="50" y="468.7" font-family="Helvetica" font-size="10" font-weight="normal" font-style="normal" fill="#000000" fill-opacity="1">Average per-element processing time over input size (bands: min, mean, mean + 2stddev)</text>
  <a xlink:href="https://github.com/apple/swift-collections-benchmark"><text x="1107" y="468.7" font-family="Helvetica" font-size="10" font-weight="normal" font-style="normal" fill="#000000" fill-opacity="1">swift-collections-benchmark</text></a>
  <path d="M 50 9 L 50 441" fill="none" stroke-width="0.75" stroke="#000000" stroke-opacity="0.49804" stroke-linecap="butt" stroke-linejoin="round"/>
  <text x="44" y="453.7" font-family="Helvetica" font-size="10" font-weight="normal" font-style="normal" fill="#000000" fill-opacity="1">16</text>
  <path d="M 218.57 9 L 218.57 441" fill="none" stroke-width="0.75" stroke="#000000" stroke-opacity="0.49804" stroke-linecap="butt" stroke-linejoin="round"/>
  <text x="212.57" y="453.7" font-family="Helvetica" font-size="10" font-weight="normal" font-style="normal" fill="#000000" fill-opacity="1">32</text>
  <path d="M 387.14 9 L 387.14 441" fill="none" stroke-width="0.75" stroke="#000000" stroke-opacity="0.49804" stroke-linecap="butt" stroke-linejoin="round"/>
  <text x="381.14" y="453.7" font-family="Helvetica" font-size="10" font-weight="normal" font-style="normal" fill="#000000" fill-opacity="1">64</text>
  <path d="M 555.71 9 L 555.71 441" fill="none" stroke-width="0.75" stroke="#000000" stroke-opacity="0.49804" stroke-linecap="butt" stroke-linejoin="round"/>
  <text x="547.21" y="453.7" font-family="Helvetica" font-size="10" font-weight="normal" font-style="normal" fill="#000000" fill-opacity="1">128</text>
  <path d="M 724.29 9 L 724.29 441" fill="none" stroke-width="0.75" stroke="#000000" stroke-opacity="0.49804" stroke-linecap="butt" stroke-linejoin="round"/>
  <text x="715.79" y="453.7" font-family="Helvetica" font-size="10" font-weight="normal" font-style="normal" fill="#000000" fill-opacity="1">256</text>
  <path d="M 892.86 9 L 892.86 441" fill="none" stroke-width="0.75" stroke="#000000" stroke-opacity="0.49804" stroke-linecap="butt" stroke-linejoin="round"/>
  <text x="884.36" y="453.7" font-family="Helvetica" font-size="10" font-weight="normal" font-style="normal" fill="#000000" fill-opacity="1">512</text>
  <path d="M 1061.4 9 L 1061.4 441" fill="none" stroke-width="0.75" stroke="#000000" stroke-opacity="0.49804" stroke-linecap="butt" stroke-linejoin="round"/>
  <text x="1055.9" y="453.7" font-family="Helvetica" font-size="10" font-weight="normal" font-style="normal" fill="#000000" fill-opacity="1">1k</text>
  <path d="M 1230 9 L 1230 441" fill="none" stroke-width="0.75" stroke="#000000" stroke-opacity="0.49804" stroke-linecap="butt" stroke-linejoin="round"/>
  <text x="1224.5" y="453.7" font-family="Helvetica" font-size="10" font-weight="normal" font-style="normal" fill="#000000" fill-opacity="1">2k</text>
  <path d="M 50 441 L 1230 441" fill="none" stroke-width="0.75" stroke="#000000" stroke-opacity="0.49804" stroke-linecap="butt" stroke-linejoin="round"/>
  <text x="18" y="442.7" font-family="Helvetica" font-size="10" font-weight="normal" font-style="normal" fill="#000000" fill-opacity="1">10 ms</text>
  <text x="1236" y="442.7" font-family="Helvetica" font-size="10" font-weight="normal" font-style="normal" fill="#000000" fill-opacity="1">10 ms</text>
  <path d="M 50 9 L 1230 9" fill="none" stroke-width="0.75" stroke="#000000" stroke-opacity="0.49804" stroke-linecap="butt" stroke-linejoin="round"/>
  <text x="13" y="10.7" font-family="Helvetica" font-size="10" font-weight="normal" font-style="normal" fill="#000000" fill-opacity="1">100 ms</text>
  <text x="1236" y="10.7" font-family="Helvetica" font-size="10" font-weight="normal" font-style="normal" fill="#000000" fill-opacity="1">100 ms</text>
  <path d="M 50 310.96 L 1230 310.96" fill="none" stroke-width="0.5" stroke="#000000" stroke-opacity="0.25882" stroke-linecap="butt" stroke-linejoin="round" stroke-dasharray="6 3" stroke-dashoffset="0"/>
  <path d="M 50 180.91 L 1230 180.91" fill="none" stroke-width="0.5" stroke="#000000" stroke-opacity="0.25882" stroke-linecap="butt" stroke-linejoin="round" stroke-dasharray="6 3" stroke-dashoffset="0"/>
  <path d="M 50 50.865 L 1230 50.865" fill="none" stroke-width="0.5" stroke="#000000" stroke-opacity="0.25882" stroke-linecap="butt" stroke-linejoin="round" stroke-dasharray="6 3" stroke-dashoffset="0"/>
  <path d="M 74 33 L 74 105 L 594 105 L 594 33 z" fill="#FFFFFF" fill-opacity="1.0" stroke="none"/>
  <clipPath id="clip-0">
    <path d="M 50 9 L 50 441 L 1230 441 L 1230 9 z"/>
  </clipPath>
  <g clip-path="url(#clip-0)">
    <path d="M 50 253.91L 104.27 247.56L 148.61 240.62L 186.1 239.24L 218.57 236.68L 272.84 238.9L 317.18 238.19L 354.67 238.98L 387.14 237.91L 441.41 237.95L 485.75 235.96L 523.24 233.21L 555.71 237.71L 609.98 237.67L 654.32 230.93L 691.81 235.99L 724.29 233.57L 778.55 237.51L 822.89 238.49L 860.38 237.26L 892.86 237.8L 947.13 234.16L 991.47 236.26L 1029 237.77L 1061.4 237.75L 1115.7 238.47L 1160 238.58L 1197.5 240.48L 1230 239.05L 1230 242.84L 1197.5 243.06L 1160 243.4L 1115.7 243.76L 1061.4 243.49L 1029 242.64L 991.47 242.72L 947.13 243.54L 892.86 244.42L 860.38 243.66L 822.89 243.5L 778.55 243.47L 724.29 244.59L 691.81 244.07L 654.32 255.37L 609.98 246.29L 555.71 246.39L 523.24 245.86L 485.75 247.82L 441.41 245.7L 387.14 246.1L 354.67 246.8L 317.18 247.8L 272.84 246.4L 218.57 248.77L 186.1 258.49L 148.61 253.33L 104.27 257.81L 50 267.04" fill="#28CD41" fill-opacity="0.30196078431372547" stroke="none"/>
    <path d="M 50 244.2L 104.27 245.56L 148.61 228.8L 186.1 219.17L 218.57 227.45L 272.84 226.81L 317.18 225.62L 354.67 224.31L 387.14 225.2L 441.41 220.01L 485.75 221.18L 523.24 214.08L 555.71 218.85L 609.98 219.44L 654.32 212.1L 691.81 205.94L 724.29 210.48L 778.55 209.8L 822.89 211.59L 860.38 217.1L 892.86 219.55L 947.13 220.64L 991.47 214.46L 1029 217.26L 1061.4 217.61L 1115.7 217L 1160 218.84L 1197.5 218.81L 1230 218.68L 1230 218.68L 1197.5 218.81L 1160 218.84L 1115.7 217L 1061.4 217.61L 1029 217.26L 991.47 214.46L 947.13 220.64L 892.86 219.55L 860.38 217.1L 822.89 211.59L 778.55 209.8L 724.29 210.48L 691.81 205.94L 654.32 212.1L 609.98 219.44L 555.71 218.85L 523.24 214.08L 485.75 221.18L 441.41 220.01L 387.14 225.2L 354.67 224.31L 317.18 225.62L 272.84 226.81L 218.57 227.45L 186.1 219.17L 148.61 228.8L 104.27 245.56L 50 244.2" fill="#007AFF" fill-opacity="0.30196078431372547" stroke="none"/>
    <path d="M 50 248.33L 104.27 230.73L 148.61 239.21L 186.1 232.12L 218.57 241.33L 272.84 240.87L 317.18 230.5L 354.67 234.56L 387.14 231.59L 441.41 235.58L 485.75 232.78L 523.24 230.92L 555.71 230.89L 609.98 229.9L 654.32 228.81L 691.81 229.98L 724.29 216.13L 778.55 218.75L 822.89 222.64L 860.38 220.39L 892.86 225.17L 947.13 226.52L 991.47 224.08L 1029 224.23L 1061.4 224.26L 1115.7 223.64L 1160 213.84L 1197.5 210L 1230 211.95L 1230 211.95L 1197.5 210L 1160 213.84L 1115.7 223.64L 1061.4 224.26L 1029 224.23L 991.47 224.08L 947.13 226.52L 892.86 225.17L 860.38 220.39L 822.89 222.64L 778.55 218.75L 724.29 216.13L 691.81 229.98L 654.32 228.81L 609.98 229.9L 555.71 230.89L 523.24 230.92L 485.75 232.78L 441.41 235.58L 387.14 231.59L 354.67 234.56L 317.18 230.5L 272.84 240.87L 218.57 241.33L 186.1 232.12L 148.61 239.21L 104.27 230.73L 50 248.33" fill="#FF3B30" fill-opacity="0.30196078431372547" stroke="none"/>
    <path d="M 50 261.87L 104.27 254.32L 148.61 248.4L 186.1 250.98L 218.57 242.55L 272.84 244.17L 317.18 244.39L 354.67 243.78L 387.14 243.62L 441.41 242.76L 485.75 242.84L 523.24 242.43L 555.71 243.82L 609.98 243.3L 654.32 242.11L 691.81 241.41L 724.29 240.04L 778.55 240.79L 822.89 241.6L 860.38 241.33L 892.86 241.59L 947.13 240.84L 991.47 240.86L 1029 241.29L 1061.4 241.77L 1115.7 241.85L 1160 241.69L 1197.5 242.1L 1230 241.72" fill="none" stroke-width="4" stroke="#28CD41" stroke-opacity="1" stroke-linecap="round" stroke-linejoin="round"/>
    <path d="M 50 244.2L 104.27 245.56L 148.61 228.8L 186.1 219.17L 218.57 227.45L 272.84 226.81L 317.18 225.62L 354.67 224.31L 387.14 225.2L 441.41 220.01L 485.75 221.18L 523.24 214.08L 555.71 218.85L 609.98 219.44L 654.32 212.1L 691.81 205.94L 724.29 210.48L 778.55 209.8L 822.89 211.59L 860.38 217.1L 892.86 219.55L 947.13 220.64L 991.47 214.46L 1029 217.26L 1061.4 217.61L 1115.7 217L 1160 218.84L 1197.5 218.81L 1230 218.68" fill="none" stroke-width="4" stroke="#007AFF" stroke-opacity="1" stroke-linecap="round" stroke-linejoin="round"/>
    <path d="M 50 248.33L 104.27 230.73L 148.61 239.21L 186.1 232.12L 218.57 241.33L 272.84 240.87L 317.18 230.5L 354.67 234.56L 387.14 231.59L 441.41 235.58L 485.75 232.78L 523.24 230.92L 555.71 230.89L 609.98 229.9L 654.32 228.81L 691.81 229.98L 724.29 216.13L 778.55 218.75L 822.89 222.64L 860.38 220.39L 892.86 225.17L 947.13 226.52L 991.47 224.08L 1029 224.23L 1061.4 224.26L 1115.7 223.64L 1160 213.84L 1197.5 210L 1230 211.95" fill="none" stroke-width="4" stroke="#FF3B30" stroke-opacity="1" stroke-linecap="round" stroke-linejoin="round"/>
    <path d="M 50 261.87L 104.27 254.32L 148.61 248.4L 186.1 250.98L 218.57 242.55L 272.84 244.17L 317.18 244.39L 354.67 243.78L 387.14 243.62L 441.41 242.76L 485.75 242.84L 523.24 242.43L 555.71 243.82L 609.98 243.3L 654.32 242.11L 691.81 241.41L 724.29 240.04L 778.55 240.79L 822.89 241.6L 860.38 241.33L 892.86 241.59L 947.13 240.84L 991.47 240.86L 1029 241.29L 1061.4 241.77L 1115.7 241.85L 1160 241.69L 1197.5 242.1L 1230 241.72" fill="none" stroke-width="0.5" stroke="#000000" stroke-opacity="0.30196" stroke-linecap="round" stroke-linejoin="round"/>
    <path d="M 50 244.2L 104.27 245.56L 148.61 228.8L 186.1 219.17L 218.57 227.45L 272.84 226.81L 317.18 225.62L 354.67 224.31L 387.14 225.2L 441.41 220.01L 485.75 221.18L 523.24 214.08L 555.71 218.85L 609.98 219.44L 654.32 212.1L 691.81 205.94L 724.29 210.48L 778.55 209.8L 822.89 211.59L 860.38 217.1L 892.86 219.55L 947.13 220.64L 991.47 214.46L 1029 217.26L 1061.4 217.61L 1115.7 217L 1160 218.84L 1197.5 218.81L 1230 218.68" fill="none" stroke-width="0.5" stroke="#000000" stroke-opacity="0.30196" stroke-linecap="round" stroke-linejoin="round"/>
    <path d="M 50 248.33L 104.27 230.73L 148.61 239.21L 186.1 232.12L 218.57 241.33L 272.84 240.87L 317.18 230.5L 354.67 234.56L 387.14 231.59L 441.41 235.58L 485.75 232.78L 523.24 230.92L 555.71 230.89L 609.98 229.9L 654.32 228.81L 691.81 229.98L 724.29 216.13L 778.55 218.75L 822.89 222.64L 860.38 220.39L 892.86 225.17L 947.13 226.52L 991.47 224.08L 1029 224.23L 1061.4 224.26L 1115.7 223.64L 1160 213.84L 1197.5 210L 1230 211.95" fill="none" stroke-width="0.5" stroke="#000000" stroke-opacity="0.30196" stroke-linecap="round" stroke-linejoin="round"/>
  </g>
  <path d="M 74 33 L 74 105 L 594 105 L 594 33 z" fill="#FFFFFF" fill-opacity="0.7019607843137254" stroke-width="0.5" stroke="#000000" stroke-opacity="1" stroke-linecap="round" stroke-linejoin="round"/>
  <path d="M 88 52 L 108 52" fill="none" stroke-width="4" stroke="#FF3B30" stroke-opacity="1" stroke-linecap="round" stroke-linejoin="round"/>
  <path d="M 88 52 L 108 52" fill="none" stroke-width="0.5" stroke="#000000" stroke-opacity="0.30196" stroke-linecap="round" stroke-linejoin="round"/>
  <text x="119" y="56.17" font-family="Menlo" font-size="12" font-weight="normal" font-style="normal" fill="#000000" fill-opacity="1">Go∶ Post Chat Event and Receive Poll Results - 1024 Listeners</text>
  <path d="M 88 69 L 108 69" fill="none" stroke-width="4" stroke="#007AFF" stroke-opacity="1" stroke-linecap="round" stroke-linejoin="round"/>
  <path d="M 88 69 L 108 69" fill="none" stroke-width="0.5" stroke="#000000" stroke-opacity="0.30196" stroke-linecap="round" stroke-linejoin="round"/>
  <text x="119" y="73.17" font-family="Menlo" font-size="12" font-weight="normal" font-style="normal" fill="#000000" fill-opacity="1">Scala∶ Post Chat Event and Receive Poll Results - 1024 Listeners</text>
  <path d="M 88 86 L 108 86" fill="none" stroke-width="4" stroke="#28CD41" stroke-opacity="1" stroke-linecap="round" stroke-linejoin="round"/>
  <path d="M 88 86 L 108 86" fill="none" stroke-width="0.5" stroke="#000000" stroke-opacity="0.30196" stroke-linecap="round" stroke-linejoin="round"/>
  <text x="119" y="90.17" font-family="Menlo" font-size="12" font-weight="normal" font-style="normal" fill="#000000" fill-opacity="1">Swift∶ Post Chat Event and Receive Poll Results - 1024 Listeners</text>
  <path d="M 50 9 L 50 441 L 1230 441 L 1230 9 z" fill="none" stroke-width="0.5" stroke="#000000" stroke-opacity="1" stroke-linecap="round" stroke-linejoin="round"/>
</svg>
