<!DOCTYPE svg PUBLIC "-//W3C//DTD SVG 1.1//EN" "http://www.w3.org/Graphics/SVG/1.1/DTD/svg11.dtd">
<svg width="1280.0px" height="480.0px" viewBox="0.0 0.0 1280.0 480.0" xmlns="http://www.w3.org/2000/svg" xmlns:xlink="http://www.w3.org/1999/xlink" version="1.1">
  <path d="M 0 0 L 0 480 L 1280 480 L 1280 0 z" fill="#FFFFFF" fill-opacity="1.0" stroke="none"/>
  <text x="50" y="468.7" font-family="Helvetica" font-size="10" font-weight="normal" font-style="normal" fill="#000000" fill-opacity="1">Average per-element processing time over input size (bands: min, mean, mean + 2stddev)</text>
  <a xlink:href="https://github.com/apple/swift-collections-benchmark"><text x="1107" y="468.7" font-family="Helvetica" font-size="10" font-weight="normal" font-style="normal" fill="#000000" fill-opacity="1">swift-collections-benchmark</text></a>
  <path d="M 50 9 L 50 441" fill="none" stroke-width="0.75" stroke="#000000" stroke-opacity="0.49804" stroke-linecap="butt" stroke-linejoin="round"/>
  <text x="44" y="453.7" font-family="Helvetica" font-size="10" font-weight="normal" font-style="normal" fill="#000000" fill-opacity="1">16</text>
  <path d="M 345 9 L 345 441" fill="none" stroke-width="0.75" stroke="#000000" stroke-opacity="0.49804" stroke-linecap="butt" stroke-linejoin="round"/>
  <text x="339" y="453.7" font-family="Helvetica" font-size="10" font-weight="normal" font-style="normal" fill="#000000" fill-opacity="1">32</text>
  <path d="M 640 9 L 640 441" fill="none" stroke-width="0.75" stroke="#000000" stroke-opacity="0.49804" stroke-linecap="butt" stroke-linejoin="round"/>
  <text x="634" y="453.7" font-family="Helvetica" font-size="10" font-weight="normal" font-style="normal" fill="#000000" fill-opacity="1">64</text>
  <path d="M 935 9 L 935 441" fill="none" stroke-width="0.75" stroke="#000000" stroke-opacity="0.49804" stroke-linecap="butt" stroke-linejoin="round"/>
  <text x="926.5" y="453.7" font-family="Helvetica" font-size="10" font-weight="normal" font-style="normal" fill="#000000" fill-opacity="1">128</text>
  <path d="M 1230 9 L 1230 441" fill="none" stroke-width="0.75" stroke="#000000" stroke-opacity="0.49804" stroke-linecap="butt" stroke-linejoin="round"/>
  <text x="1221.5" y="453.7" font-family="Helvetica" font-size="10" font-weight="normal" font-style="normal" fill="#000000" fill-opacity="1">256</text>
  <path d="M 50 441 L 1230 441" fill="none" stroke-width="0.75" stroke="#000000" stroke-opacity="0.49804" stroke-linecap="butt" stroke-linejoin="round"/>
  <text x="15" y="442.7" font-family="Helvetica" font-size="10" font-weight="normal" font-style="normal" fill="#000000" fill-opacity="1">100 µs</text>
  <text x="1236" y="442.7" font-family="Helvetica" font-size="10" font-weight="normal" font-style="normal" fill="#000000" fill-opacity="1">100 µs</text>
  <path d="M 50 297 L 1230 297" fill="none" stroke-width="0.75" stroke="#000000" stroke-opacity="0.49804" stroke-linecap="butt" stroke-linejoin="round"/>
  <text x="24" y="298.7" font-family="Helvetica" font-size="10" font-weight="normal" font-style="normal" fill="#000000" fill-opacity="1">1 ms</text>
  <text x="1236" y="298.7" font-family="Helvetica" font-size="10" font-weight="normal" font-style="normal" fill="#000000" fill-opacity="1">1 ms</text>
  <path d="M 50 153 L 1230 153" fill="none" stroke-width="0.75" stroke="#000000" stroke-opacity="0.49804" stroke-linecap="butt" stroke-linejoin="round"/>
  <text x="18" y="154.7" font-family="Helvetica" font-size="10" font-weight="normal" font-style="normal" fill="#000000" fill-opacity="1">10 ms</text>
  <text x="1236" y="154.7" font-family="Helvetica" font-size="10" font-weight="normal" font-style="normal" fill="#000000" fill-opacity="1">10 ms</text>
  <path d="M 50 9 L 1230 9" fill="none" stroke-width="0.75" stroke="#000000" stroke-opacity="0.49804" stroke-linecap="butt" stroke-linejoin="round"/>
  <text x="13" y="10.7" font-family="Helvetica" font-size="10" font-weight="normal" font-style="normal" fill="#000000" fill-opacity="1">100 ms</text>
  <text x="1236" y="10.7" font-family="Helvetica" font-size="10" font-weight="normal" font-style="normal" fill="#000000" fill-opacity="1">100 ms</text>
  <path d="M 50 397.65 L 1230 397.65" fill="none" stroke-width="0.5" stroke="#000000" stroke-opacity="0.25882" stroke-linecap="butt" stroke-linejoin="round" stroke-dasharray="6 3" stroke-dashoffset="0"/>
  <path d="M 50 354.3 L 1230 354.3" fill="none" stroke-width="0.5" stroke="#000000" stroke-opacity="0.25882" stroke-linecap="butt" stroke-linejoin="round" stroke-dasharray="6 3" stroke-dashoffset="0"/>
  <path d="M 50 310.96 L 1230 310.96" fill="none" stroke-width="0.5" stroke="#000000" stroke-opacity="0.25882" stroke-linecap="butt" stroke-linejoin="round" stroke-dasharray="6 3" stroke-dashoffset="0"/>
  <path d="M 50 267.61 L 1230 267.61" fill="none" stroke-width="0.5" stroke="#000000" stroke-opacity="0.25882" stroke-linecap="butt" stroke-linejoin="round" stroke-dasharray="6 3" stroke-dashoffset="0"/>
  <path d="M 50 224.26 L 1230 224.26" fill="none" stroke-width="0.5" stroke="#000000" stroke-opacity="0.25882" stroke-linecap="butt" stroke-linejoin="round" stroke-dasharray="6 3" stroke-dashoffset="0"/>
  <path d="M 50 180.91 L 1230 180.91" fill="none" stroke-width="0.5" stroke="#000000" stroke-opacity="0.25882" stroke-linecap="butt" stroke-linejoin="round" stroke-dasharray="6 3" stroke-dashoffset="0"/>
  <path d="M 50 137.56 L 1230 137.56" fill="none" stroke-width="0.5" stroke="#000000" stroke-opacity="0.25882" stroke-linecap="butt" stroke-linejoin="round" stroke-dasharray="6 3" stroke-dashoffset="0"/>
  <path d="M 50 94.213 L 1230 94.213" fill="none" stroke-width="0.5" stroke="#000000" stroke-opacity="0.25882" stroke-linecap="butt" stroke-linejoin="round" stroke-dasharray="6 3" stroke-dashoffset="0"/>
  <path d="M 50 50.865 L 1230 50.865" fill="none" stroke-width="0.5" stroke="#000000" stroke-opacity="0.25882" stroke-linecap="butt" stroke-linejoin="round" stroke-dasharray="6 3" stroke-dashoffset="0"/>
  <path d="M 74 33 L 74 207 L 673 207 L 673 33 z" fill="#FFFFFF" fill-opacity="1.0" stroke="none"/>
  <clipPath id="clip-0">
    <path d="M 50 9 L 50 441 L 1230 441 L 1230 9 z"/>
  </clipPath>
  <g clip-path="url(#clip-0)">
    <path d="M 50 85.864L 144.97 83.463L 222.56 84.5L 288.17 82.294L 345 80.379L 439.97 81.556L 517.56 81.092L 583.17 79.404L 640 80.136L 734.97 79.493L 812.56 78.862L 878.17 77.549L 935 76.955L 1030 76.947L 1107.6 73.278L 1173.2 73.229L 1230 73.353L 1230 73.353L 1173.2 73.229L 1107.6 73.278L 1030 76.947L 935 76.955L 878.17 77.549L 812.56 78.862L 734.97 79.493L 640 80.136L 583.17 79.404L 517.56 81.092L 439.97 81.556L 345 80.379L 288.17 82.294L 222.56 84.5L 144.97 83.463L 50 85.864" fill="#8E8E93" fill-opacity="0.30196078431372547" stroke="none"/>
    <path d="M 50 216.83L 144.97 216.34L 222.56 218.7L 288.17 212.69L 345 211.86L 439.97 213.96L 517.56 212.63L 583.17 210.92L 640 207.99L 734.97 209.36L 812.56 211.58L 878.17 208.67L 935 212.62L 1030 212.97L 1107.6 204.03L 1173.2 204.18L 1230 202.46L 1230 202.46L 1173.2 204.18L 1107.6 204.03L 1030 212.97L 935 212.62L 878.17 208.67L 812.56 211.58L 734.97 209.36L 640 207.99L 583.17 210.92L 517.56 212.63L 439.97 213.96L 345 211.86L 288.17 212.69L 222.56 218.7L 144.97 216.34L 50 216.83" fill="#AF52DE" fill-opacity="0.30196078431372547" stroke="none"/>
    <path d="M 50 297.49L 144.97 298.62L 222.56 301.34L 288.17 300.27L 345 296.67L 439.97 297.87L 517.56 298.06L 583.17 300.17L 640 294.48L 734.97 298.24L 812.56 298.4L 878.17 298.46L 935 299.92L 1030 299.48L 1107.6 289.37L 1173.2 290.05L 1230 287.79L 1230 287.79L 1173.2 290.05L 1107.6 289.37L 1030 299.48L 935 299.92L 878.17 298.46L 812.56 298.4L 734.97 298.24L 640 294.48L 583.17 300.17L 517.56 298.06L 439.97 297.87L 345 296.67L 288.17 300.27L 222.56 301.34L 144.97 298.62L 50 297.49" fill="#A2845E" fill-opacity="0.30196078431372547" stroke="none"/>
    <path d="M 50 69.1L 144.97 64.41L 222.56 56.951L 288.17 62.542L 345 61.773L 439.97 57.486L 517.56 52.887L 583.17 43.986L 640 37.983L 734.97 36.512L 812.56 34.448L 878.17 29.725L 935 25.851L 1030 22.643L 1107.6 23.589L 1173.2 18.128L 1230 20.646L 1230 20.646L 1173.2 18.128L 1107.6 23.589L 1030 22.643L 935 25.851L 878.17 29.725L 812.56 34.448L 734.97 36.512L 640 37.983L 583.17 43.986L 517.56 52.887L 439.97 57.486L 345 61.773L 288.17 62.542L 222.56 56.951L 144.97 64.41L 50 69.1" fill="#FF9500" fill-opacity="0.30196078431372547" stroke="none"/>
    <path d="M 50 202.65L 144.97 196.43L 222.56 191.02L 288.17 190.27L 345 190.93L 439.97 188.07L 517.56 186.15L 583.17 175.59L 640 167.6L 734.97 164.62L 812.56 160.04L 878.17 159.86L 935 156.1L 1030 150.18L 1107.6 147.49L 1173.2 148.76L 1230 149.47L 1230 149.47L 1173.2 148.76L 1107.6 147.49L 1030 150.18L 935 156.1L 878.17 159.86L 812.56 160.04L 734.97 164.62L 640 167.6L 583.17 175.59L 517.56 186.15L 439.97 188.07L 345 190.93L 288.17 190.27L 222.56 191.02L 144.97 196.43L 50 202.65" fill="#5856D6" fill-opacity="0.30196078431372547" stroke="none"/>
    <path d="M 50 301.33L 144.97 301.82L 222.56 292.29L 288.17 287.55L 345 302.74L 439.97 301.04L 517.56 299.85L 583.17 299.47L 640 290.67L 734.97 284.68L 812.56 290.01L 878.17 281.04L 935 280.49L 1030 277.79L 1107.6 271.59L 1173.2 273.42L 1230 273.4L 1230 273.4L 1173.2 273.42L 1107.6 271.59L 1030 277.79L 935 280.49L 878.17 281.04L 812.56 290.01L 734.97 284.68L 640 290.67L 583.17 299.47L 517.56 299.85L 439.97 301.04L 345 302.74L 288.17 287.55L 222.56 292.29L 144.97 301.82L 50 301.33" fill="#FFCC00" fill-opacity="0.30196078431372547" stroke="none"/>
    <path d="M 50 68.902L 144.97 64.219L 222.56 61.416L 288.17 58.234L 345 57.703L 439.97 54.71L 517.56 49.895L 583.17 47.279L 640 35.674L 734.97 33.065L 812.56 28.165L 878.17 18.96L 935 23.619L 1030 17.914L 1107.6 11.173L 1173.2 9.7458L 1230 11.206L 1230 11.206L 1173.2 9.7458L 1107.6 11.173L 1030 17.914L 935 23.619L 878.17 18.96L 812.56 28.165L 734.97 33.065L 640 35.674L 583.17 47.279L 517.56 49.895L 439.97 54.71L 345 57.703L 288.17 58.234L 222.56 61.416L 144.97 64.219L 50 68.902" fill="#28CD41" fill-opacity="0.30196078431372547" stroke="none"/>
    <path d="M 50 199.18L 144.97 193.74L 222.56 188.3L 288.17 191.22L 345 187.72L 439.97 184.69L 517.56 180.03L 583.17 177.11L 640 166.19L 734.97 160.86L 812.56 157.86L 878.17 154.25L 935 148.7L 1030 144.38L 1107.6 142.02L 1173.2 140.32L 1230 137.24L 1230 137.24L 1173.2 140.32L 1107.6 142.02L 1030 144.38L 935 148.7L 878.17 154.25L 812.56 157.86L 734.97 160.86L 640 166.19L 583.17 177.11L 517.56 180.03L 439.97 184.69L 345 187.72L 288.17 191.22L 222.56 188.3L 144.97 193.74L 50 199.18" fill="#007AFF" fill-opacity="0.30196078431372547" stroke="none"/>
    <path d="M 50 305.07L 144.97 302.43L 222.56 300.83L 288.17 301.55L 345 297.78L 439.97 301.84L 517.56 302.78L 583.17 297.89L 640 292.8L 734.97 287.06L 812.56 282.58L 878.17 275.8L 935 273.25L 1030 274.79L 1107.6 269.71L 1173.2 269.55L 1230 268.57L 1230 268.57L 1173.2 269.55L 1107.6 269.71L 1030 274.79L 935 273.25L 878.17 275.8L 812.56 282.58L 734.97 287.06L 640 292.8L 583.17 297.89L 517.56 302.78L 439.97 301.84L 345 297.78L 288.17 301.55L 222.56 300.83L 144.97 302.43L 50 305.07" fill="#FF3B30" fill-opacity="0.30196078431372547" stroke="none"/>
    <path d="M 50 85.864L 144.97 83.463L 222.56 84.5L 288.17 82.294L 345 80.379L 439.97 81.556L 517.56 81.092L 583.17 79.404L 640 80.136L 734.97 79.493L 812.56 78.862L 878.17 77.549L 935 76.955L 1030 76.947L 1107.6 73.278L 1173.2 73.229L 1230 73.353" fill="none" stroke-width="4" stroke="#8E8E93" stroke-opacity="1" stroke-linecap="round" stroke-linejoin="round"/>
    <path d="M 50 216.83L 144.97 216.34L 222.56 218.7L 288.17 212.69L 345 211.86L 439.97 213.96L 517.56 212.63L 583.17 210.92L 640 207.99L 734.97 209.36L 812.56 211.58L 878.17 208.67L 935 212.62L 1030 212.97L 1107.6 204.03L 1173.2 204.18L 1230 202.46" fill="none" stroke-width="4" stroke="#AF52DE" stroke-opacity="1" stroke-linecap="round" stroke-linejoin="round"/>
    <path d="M 50 297.49L 144.97 298.62L 222.56 301.34L 288.17 300.27L 345 296.67L 439.97 297.87L 517.56 298.06L 583.17 300.17L 640 294.48L 734.97 298.24L 812.56 298.4L 878.17 298.46L 935 299.92L 1030 299.48L 1107.6 289.37L 1173.2 290.05L 1230 287.79" fill="none" stroke-width="4" stroke="#A2845E" stroke-opacity="1" stroke-linecap="round" stroke-linejoin="round"/>
    <path d="M 50 69.1L 144.97 64.41L 222.56 56.951L 288.17 62.542L 345 61.773L 439.97 57.486L 517.56 52.887L 583.17 43.986L 640 37.983L 734.97 36.512L 812.56 34.448L 878.17 29.725L 935 25.851L 1030 22.643L 1107.6 23.589L 1173.2 18.128L 1230 20.646" fill="none" stroke-width="4" stroke="#FF9500" stroke-opacity="1" stroke-linecap="round" stroke-linejoin="round"/>
    <path d="M 50 202.65L 144.97 196.43L 222.56 191.02L 288.17 190.27L 345 190.93L 439.97 188.07L 517.56 186.15L 583.17 175.59L 640 167.6L 734.97 164.62L 812.56 160.04L 878.17 159.86L 935 156.1L 1030 150.18L 1107.6 147.49L 1173.2 148.76L 1230 149.47" fill="none" stroke-width="4" stroke="#5856D6" stroke-opacity="1" stroke-linecap="round" stroke-linejoin="round"/>
    <path d="M 50 301.33L 144.97 301.82L 222.56 292.29L 288.17 287.55L 345 302.74L 439.97 301.04L 517.56 299.85L 583.17 299.47L 640 290.67L 734.97 284.68L 812.56 290.01L 878.17 281.04L 935 280.49L 1030 277.79L 1107.6 271.59L 1173.2 273.42L 1230 273.4" fill="none" stroke-width="4" stroke="#FFCC00" stroke-opacity="1" stroke-linecap="round" stroke-linejoin="round"/>
    <path d="M 50 68.902L 144.97 64.219L 222.56 61.416L 288.17 58.234L 345 57.703L 439.97 54.71L 517.56 49.895L 583.17 47.279L 640 35.674L 734.97 33.065L 812.56 28.165L 878.17 18.96L 935 23.619L 1030 17.914L 1107.6 11.173L 1173.2 9.7458L 1230 11.206" fill="none" stroke-width="4" stroke="#28CD41" stroke-opacity="1" stroke-linecap="round" stroke-linejoin="round"/>
    <path d="M 50 199.18L 144.97 193.74L 222.56 188.3L 288.17 191.22L 345 187.72L 439.97 184.69L 517.56 180.03L 583.17 177.11L 640 166.19L 734.97 160.86L 812.56 157.86L 878.17 154.25L 935 148.7L 1030 144.38L 1107.6 142.02L 1173.2 140.32L 1230 137.24" fill="none" stroke-width="4" stroke="#007AFF" stroke-opacity="1" stroke-linecap="round" stroke-linejoin="round"/>
    <path d="M 50 305.07L 144.97 302.43L 222.56 300.83L 288.17 301.55L 345 297.78L 439.97 301.84L 517.56 302.78L 583.17 297.89L 640 292.8L 734.97 287.06L 812.56 282.58L 878.17 275.8L 935 273.25L 1030 274.79L 1107.6 269.71L 1173.2 269.55L 1230 268.57" fill="none" stroke-width="4" stroke="#FF3B30" stroke-opacity="1" stroke-linecap="round" stroke-linejoin="round"/>
    <path d="M 50 85.864L 144.97 83.463L 222.56 84.5L 288.17 82.294L 345 80.379L 439.97 81.556L 517.56 81.092L 583.17 79.404L 640 80.136L 734.97 79.493L 812.56 78.862L 878.17 77.549L 935 76.955L 1030 76.947L 1107.6 73.278L 1173.2 73.229L 1230 73.353" fill="none" stroke-width="0.5" stroke="#000000" stroke-opacity="0.30196" stroke-linecap="round" stroke-linejoin="round"/>
    <path d="M 50 216.83L 144.97 216.34L 222.56 218.7L 288.17 212.69L 345 211.86L 439.97 213.96L 517.56 212.63L 583.17 210.92L 640 207.99L 734.97 209.36L 812.56 211.58L 878.17 208.67L 935 212.62L 1030 212.97L 1107.6 204.03L 1173.2 204.18L 1230 202.46" fill="none" stroke-width="0.5" stroke="#000000" stroke-opacity="0.30196" stroke-linecap="round" stroke-linejoin="round"/>
    <path d="M 50 297.49L 144.97 298.62L 222.56 301.34L 288.17 300.27L 345 296.67L 439.97 297.87L 517.56 298.06L 583.17 300.17L 640 294.48L 734.97 298.24L 812.56 298.4L 878.17 298.46L 935 299.92L 1030 299.48L 1107.6 289.37L 1173.2 290.05L 1230 287.79" fill="none" stroke-width="0.5" stroke="#000000" stroke-opacity="0.30196" stroke-linecap="round" stroke-linejoin="round"/>
    <path d="M 50 69.1L 144.97 64.41L 222.56 56.951L 288.17 62.542L 345 61.773L 439.97 57.486L 517.56 52.887L 583.17 43.986L 640 37.983L 734.97 36.512L 812.56 34.448L 878.17 29.725L 935 25.851L 1030 22.643L 1107.6 23.589L 1173.2 18.128L 1230 20.646" fill="none" stroke-width="0.5" stroke="#000000" stroke-opacity="0.30196" stroke-linecap="round" stroke-linejoin="round"/>
    <path d="M 50 202.65L 144.97 196.43L 222.56 191.02L 288.17 190.27L 345 190.93L 439.97 188.07L 517.56 186.15L 583.17 175.59L 640 167.6L 734.97 164.62L 812.56 160.04L 878.17 159.86L 935 156.1L 1030 150.18L 1107.6 147.49L 1173.2 148.76L 1230 149.47" fill="none" stroke-width="0.5" stroke="#000000" stroke-opacity="0.30196" stroke-linecap="round" stroke-linejoin="round"/>
    <path d="M 50 301.33L 144.97 301.82L 222.56 292.29L 288.17 287.55L 345 302.74L 439.97 301.04L 517.56 299.85L 583.17 299.47L 640 290.67L 734.97 284.68L 812.56 290.01L 878.17 281.04L 935 280.49L 1030 277.79L 1107.6 271.59L 1173.2 273.42L 1230 273.4" fill="none" stroke-width="0.5" stroke="#000000" stroke-opacity="0.30196" stroke-linecap="round" stroke-linejoin="round"/>
    <path d="M 50 68.902L 144.97 64.219L 222.56 61.416L 288.17 58.234L 345 57.703L 439.97 54.71L 517.56 49.895L 583.17 47.279L 640 35.674L 734.97 33.065L 812.56 28.165L 878.17 18.96L 935 23.619L 1030 17.914L 1107.6 11.173L 1173.2 9.7458L 1230 11.206" fill="none" stroke-width="0.5" stroke="#000000" stroke-opacity="0.30196" stroke-linecap="round" stroke-linejoin="round"/>
    <path d="M 50 199.18L 144.97 193.74L 222.56 188.3L 288.17 191.22L 345 187.72L 439.97 184.69L 517.56 180.03L 583.17 177.11L 640 166.19L 734.97 160.86L 812.56 157.86L 878.17 154.25L 935 148.7L 1030 144.38L 1107.6 142.02L 1173.2 140.32L 1230 137.24" fill="none" stroke-width="0.5" stroke="#000000" stroke-opacity="0.30196" stroke-linecap="round" stroke-linejoin="round"/>
    <path d="M 50 305.07L 144.97 302.43L 222.56 300.83L 288.17 301.55L 345 297.78L 439.97 301.84L 517.56 302.78L 583.17 297.89L 640 292.8L 734.97 287.06L 812.56 282.58L 878.17 275.8L 935 273.25L 1030 274.79L 1107.6 269.71L 1173.2 269.55L 1230 268.57" fill="none" stroke-width="0.5" stroke="#000000" stroke-opacity="0.30196" stroke-linecap="round" stroke-linejoin="round"/>
  </g>
  <path d="M 74 33 L 74 207 L 673 207 L 673 33 z" fill="#FFFFFF" fill-opacity="0.7019607843137254" stroke-width="0.5" stroke="#000000" stroke-opacity="1" stroke-linecap="round" stroke-linejoin="round"/>
  <path d="M 88 52 L 108 52" fill="none" stroke-width="4" stroke="#FF3B30" stroke-opacity="1" stroke-linecap="round" stroke-linejoin="round"/>
  <path d="M 88 52 L 108 52" fill="none" stroke-width="0.5" stroke="#000000" stroke-opacity="0.30196" stroke-linecap="round" stroke-linejoin="round"/>
  <text x="119" y="56.17" font-family="Menlo" font-size="12" font-weight="normal" font-style="normal" fill="#000000" fill-opacity="1">Profile∶ Post Chat Event and Receive Poll Results - 16 Listeners</text>
  <path d="M 88 69 L 108 69" fill="none" stroke-width="4" stroke="#007AFF" stroke-opacity="1" stroke-linecap="round" stroke-linejoin="round"/>
  <path d="M 88 69 L 108 69" fill="none" stroke-width="0.5" stroke="#000000" stroke-opacity="0.30196" stroke-linecap="round" stroke-linejoin="round"/>
  <text x="119" y="73.17" font-family="Menlo" font-size="12" font-weight="normal" font-style="normal" fill="#000000" fill-opacity="1">Profile∶ Post Chat Event and Receive Poll Results - 128 Listeners</text>
  <path d="M 88 86 L 108 86" fill="none" stroke-width="4" stroke="#28CD41" stroke-opacity="1" stroke-linecap="round" stroke-linejoin="round"/>
  <path d="M 88 86 L 108 86" fill="none" stroke-width="0.5" stroke="#000000" stroke-opacity="0.30196" stroke-linecap="round" stroke-linejoin="round"/>
  <text x="119" y="90.17" font-family="Menlo" font-size="12" font-weight="normal" font-style="normal" fill="#000000" fill-opacity="1">Profile∶ Post Chat Event and Receive Poll Results - 1024 Listeners</text>
  <path d="M 88 103 L 108 103" fill="none" stroke-width="4" stroke="#FFCC00" stroke-opacity="1" stroke-linecap="round" stroke-linejoin="round"/>
  <path d="M 88 103 L 108 103" fill="none" stroke-width="0.5" stroke="#000000" stroke-opacity="0.30196" stroke-linecap="round" stroke-linejoin="round"/>
  <text x="119" y="107.17" font-family="Menlo" font-size="12" font-weight="normal" font-style="normal" fill="#000000" fill-opacity="1">LazyCounts∶ Post Chat Event and Receive Poll Results - 16 Listeners</text>
  <path d="M 88 120 L 108 120" fill="none" stroke-width="4" stroke="#5856D6" stroke-opacity="1" stroke-linecap="round" stroke-linejoin="round"/>
  <path d="M 88 120 L 108 120" fill="none" stroke-width="0.5" stroke="#000000" stroke-opacity="0.30196" stroke-linecap="round" stroke-linejoin="round"/>
  <text x="119" y="124.17" font-family="Menlo" font-size="12" font-weight="normal" font-style="normal" fill="#000000" fill-opacity="1">LazyCounts∶ Post Chat Event and Receive Poll Results - 128 Listeners</text>
  <path d="M 88 137 L 108 137" fill="none" stroke-width="4" stroke="#FF9500" stroke-opacity="1" stroke-linecap="round" stroke-linejoin="round"/>
  <path d="M 88 137 L 108 137" fill="none" stroke-width="0.5" stroke="#000000" stroke-opacity="0.30196" stroke-linecap="round" stroke-linejoin="round"/>
  <text x="119" y="141.17" font-family="Menlo" font-size="12" font-weight="normal" font-style="normal" fill="#000000" fill-opacity="1">LazyCounts∶ Post Chat Event and Receive Poll Results - 1024 Listeners</text>
  <path d="M 88 154 L 108 154" fill="none" stroke-width="4" stroke="#A2845E" stroke-opacity="1" stroke-linecap="round" stroke-linejoin="round"/>
  <path d="M 88 154 L 108 154" fill="none" stroke-width="0.5" stroke="#000000" stroke-opacity="0.30196" stroke-linecap="round" stroke-linejoin="round"/>
  <text x="119" y="158.17" font-family="Menlo" font-size="12" font-weight="normal" font-style="normal" fill="#000000" fill-opacity="1">ReallyLazyCounts∶ Post Chat Event and Receive Poll Results - 16 Listeners</text>
  <path d="M 88 171 L 108 171" fill="none" stroke-width="4" stroke="#AF52DE" stroke-opacity="1" stroke-linecap="round" stroke-linejoin="round"/>
  <path d="M 88 171 L 108 171" fill="none" stroke-width="0.5" stroke="#000000" stroke-opacity="0.30196" stroke-linecap="round" stroke-linejoin="round"/>
  <text x="119" y="175.17" font-family="Menlo" font-size="12" font-weight="normal" font-style="normal" fill="#000000" fill-opacity="1">ReallyLazyCounts∶ Post Chat Event and Receive Poll Results - 128 Listeners</text>
  <path d="M 88 188 L 108 188" fill="none" stroke-width="4" stroke="#8E8E93" stroke-opacity="1" stroke-linecap="round" stroke-linejoin="round"/>
  <path d="M 88 188 L 108 188" fill="none" stroke-width="0.5" stroke="#000000" stroke-opacity="0.30196" stroke-linecap="round" stroke-linejoin="round"/>
  <text x="119" y="192.17" font-family="Menlo" font-size="12" font-weight="normal" font-style="normal" fill="#000000" fill-opacity="1">ReallyLazyCounts∶ Post Chat Event and Receive Poll Results - 1024 Listeners</text>
  <path d="M 50 9 L 50 441 L 1230 441 L 1230 9 z" fill="none" stroke-width="0.5" stroke="#000000" stroke-opacity="1" stroke-linecap="round" stroke-linejoin="round"/>
</svg>
